# xmcd CD database file
#
# Track frame offsets:
#	150
#	30705
#	56700
#	98920
#	129895
#	156550
#	187025
#	225780
#	242500
#	270085
#
# Disc length: 3857 seconds
#
# Revision: 1
# Processed by: cddbd v1.5.2PL0 Copyright (c) Steve Scherf et al.
# Submitted via: CDex 1.70beta2
#
DISCID=760f0f0a
DTITLE=Ehrlich/Erskine/Formanek - Relativity
DYEAR=1999
DGENRE=Jazz
TTITLE0=Incident at Harpham flat
TTITLE1=Eloi lament
TTITLE2=Lucky life
TTITLE3=The pivot
TTITLE4=Holy waters
TTITLE5=Round the four corners
TTITLE6=Jiggle the handle
TTITLE7=Relativo
TTITLE8=Taglioni
TTITLE9=In a child's eyes
EXTD=YEAR: 1999
EXTT0=
EXTT1=
EXTT2=
EXTT3=
EXTT4=
EXTT5=
EXTT6=
EXTT7=
EXTT8=
EXTT9=
PLAYORDER=
